<svg xmlns="http://www.w3.org/2000/svg" viewBox="0 0 280 64" role="img" aria-label="Magic: The Gathering">
  <defs>
    <linearGradient id="pw" x1="0" y1="0" x2="0" y2="1">
      <stop offset="0%" stop-color="#ffc24a"/>
      <stop offset="100%" stop-color="#e08918"/>
    </linearGradient>
  </defs>
  <g fill="url(#pw)" transform="translate(28 33)">
    <path d="M0-22c2.2 4.8 3.4 8.6 3.4 12.2 0 3.1-1 5.6-2.4 7.8 3.8-1.2 7.6-1.6 11.4-.6-3.6 2.2-6.4 5.4-8.2 9.2 2.8-.2 5.4.2 8.2 1.4-4.2 1.4-7.4 4-9.6 7.6-.2-3.2-1.2-6-3-8.4-1.8 2.4-2.8 5.2-3 8.4-2.2-3.6-5.4-6.2-9.6-7.6 2.8-1.2 5.4-1.6 8.2-1.4-1.8-3.8-4.6-7-8.2-9.2 3.8-1 7.6-.6 11.4.6C-2.4-4.4-3.4-6.9-3.4-10-3.4-13.6-2.2-17.4 0-22z"/>
  </g>
  <g fill="#f4ead4" font-family="Cinzel, Palatino Linotype, serif" font-weight="700">
    <text x="58" y="28" font-size="22" letter-spacing="0.12em">MAGIC</text>
    <text x="58" y="48" font-size="11" letter-spacing="0.28em" fill="#ebc46a">THE GATHERING</text>
  </g>
</svg>
